<?xml version="1.0" encoding="UTF-8"?>
<svg version="1.1" viewBox="0 0 1600 1600" width="1280" height="1280" xmlns="http://www.w3.org/2000/svg">
<path transform="translate(0)" d="m0 0h1600v1600h-1600v-1600z" fill="#FBFCFE"/>
<path transform="translate(989,482)" d="m0 0c2.69 2.31 2.69 2.31 5 5 1.24 1.42 1.24 1.42 2.5 2.88 11.1 16.1 12.1 42.1 8.85 60.6-0.904 3.64-2 7.04-3.35 10.5-0.252 0.656-0.504 1.31-0.764 1.99-5.43 13.9-12.9 26.2-23.2 37h-2c-0.268 0.639-0.536 1.28-0.812 1.94-1.19 2.06-1.19 2.06-4.19 3.06-0.254 0.565-0.508 1.13-0.77 1.71-1.86 3.47-4.87 5.53-7.92 7.91-0.672 0.528-1.34 1.06-2.04 1.6-19.3 15-40.4 25.4-63.1 34.2-11.8 4.61-22.2 8.92-28.5 20.5-5.73 14.4 0.218 31.1 3.47 45.4 9.45 42 14.7 84.9 17.8 128 0.0595 0.797 0.119 1.59 0.18 2.41 1.56 21 2.15 42 1.85 63.1-0.0352 2.61-0.0639 5.22-0.0918 7.83-0.69 61.8-4.18 123-10.1 185-0.115 1.21-0.229 2.41-0.348 3.66-0.15 1.55-0.15 1.55-0.304 3.13-0.198 2.61-0.251 5.17-0.212 7.79 3.18 1.38 6.36 2.39 9.69 3.31 10.4 3.06 19.2 7.79 25.1 17.1 2.4 5.35 2.47 11.2 0.395 16.7-6.89 11-20.5 14.9-32.4 17.7-19.7 3.62-43.2 2.34-60.2-9.19-5.81-4.33-10.7-8-11.9-15.4-0.739-5.83-0.563-11.3 0.00366-17.1 0.0903-1.01 0.181-2.01 0.274-3.05 0.333-3.65 0.683-7.3 1.04-11 0.0713-0.733 0.143-1.47 0.216-2.22 0.485-4.98 0.973-9.96 1.46-14.9 0.699-7.12 1.39-14.2 2.08-21.4 0.152-1.57 0.305-3.14 0.458-4.71 12.4-79.2 12.4-79.2-3.22-154-1.79-2.35-1.79-2.35-3.94-3.38-3.13 0.0947-4.55 1.2-7.06 3.06-1.78 2.41-3.17 4.98-4.56 7.62-0.393 0.727-0.787 1.45-1.19 2.2-1.1 2.05-2.18 4.11-3.25 6.17-0.427 0.811-0.853 1.62-1.29 2.46-6.57 13.6-9.05 29.3-12.2 43.9-8.7 39.8-21.7 79-39.5 116-0.656 1.41-1.31 2.82-1.96 4.23-3.67 7.94-7.51 15.7-11.8 23.3-1.4 2.28-1.4 2.28-1.25 4.44 1.99 1.31 1.99 1.31 4.5 2.62 8.7 5.1 15.3 11.6 18.5 21.4 0.823 4.94 0.593 8.66-1.44 13.2-8.14 8.73-17.9 11.8-29.7 12.2-2.55 0.0235-5.09 0.0241-7.64 0.00391-0.664-0.00304-1.33-0.00608-2.01-0.00922-10.1-0.0683-18.8-0.746-28.2-4.43-1.3-0.465-2.6-0.929-3.9-1.39-11.8-4.31-23.5-10.3-29.3-22-3.14-10.1-0.272-20.4 4.2-29.6 1.81-3.04 3.82-5.94 5.85-8.83 6.19-8.91 11.1-18.6 16.2-28.2 0.568-1.08 0.568-1.08 1.15-2.18 5.85-11.1 10.8-22.7 15.8-34.2 0.908-2.14 1.83-4.27 2.75-6.41 13.1-31.3 21.1-65 27.3-98.2 0.19-0.98 0.381-1.96 0.577-2.97 12.3-64.4 15.5-144-1.58-208-11.7 5.83-21.2 15.5-29.4 25.4-0.512 0.519-1.02 1.04-1.55 1.57h-2c-0.331 0.802-0.331 0.802-0.668 1.62-1.79 3.2-4.21 5.74-6.64 8.44-4.84 5.5-9.11 11.2-13.2 17.3-4.18 6.23-8.41 12.4-12.9 18.4-0.695 0.959-0.695 0.959-1.4 1.94-5.17 6.92-11.4 13.2-20.3 14.6-2.26 0.169-4.47 0.214-6.74 0.195-0.793-5e-3 -1.59-0.00999-2.4-0.0151-6.56-0.195-11.4-1.6-16.8-5.48-0.652-0.434-1.3-0.869-1.98-1.32-6.05-4.52-9.44-11.4-11-18.7-1.23-10.6 1.86-21.1 4.13-31.3 0.433-1.99 0.864-3.99 1.29-5.98 1.14-5.25 2.29-10.5 3.44-15.7 1.15-5.22 2.28-10.4 3.41-15.7 3.11-14.3 6.23-28.6 9.38-42.9 0.66-2.99 1.32-5.98 1.98-8.97 0.437-1.98 0.878-3.96 1.32-5.95 2.07-9.41 3.18-18.2 3.19-27.8 0.0183-2.19 0.0379-4.38 0.0586-6.56 0.0291-3.43 0.0508-6.86 0.0513-10.3 0.00333-3.32 0.0378-6.64 0.0776-9.97-0.00707-1.02-0.0141-2.05-0.0214-3.1 0.122-7.1 0.122-7.1 3.05-11 2.65-1.88 2.65-1.88 5.65-2.88 2.58 1.2 4.45 2.23 6.12 4.57 1.33 3.65 1.31 7.26 1.45 11.1-0.262 5.06-0.262 5.06 1.44 9.31 0.242-0.82 0.485-1.64 0.734-2.48 0.503-1.62 0.503-1.62 1.02-3.27 0.325-1.07 0.65-2.13 0.984-3.23 1.34-3.2 2.54-4.88 5.27-7.02 3.5-0.25 3.5-0.25 7 1 1.8 2.5 2.94 5.12 4 8 0.606-0.334 1.21-0.668 1.84-1.01 2.83-1.29 4.26-0.983 7.16 0.0117 2.7 4.04 2.43 7.25 2 12-1 2.88-1 2.88-2 5v3c1.58 0.619 1.58 0.619 3.19 1.25 6.04 2.65 9.8 6.13 12.9 12 2.08 6.04 2.05 12.9 0.324 19-2.1 4.24-5.66 6.8-9.47 9.4-3.96 2.83-5.3 4.82-6.29 9.66-0.216 1.04-0.432 2.08-0.654 3.16-0.213 1.09-0.427 2.18-0.646 3.3l-0.682 3.25c-1.1 5.42-1.92 10.5-1.63 16 0.34-0.496 0.681-0.993 1.03-1.5 3.78-5.3 7.92-9.41 13-13.5 0.632-0.53 1.26-1.06 1.91-1.61 11.6-9.44 24.5-17.1 38.1-23.4 1.31-0.613 2.61-1.23 3.92-1.84 2.58-1.21 5.16-2.4 7.74-3.6 2.58-1.21 5.12-2.45 7.65-3.75 3.5-1.78 7.1-3.2 10.8-4.63 3.49-1.41 6.93-2.91 10.4-4.43 6.79-3 13.6-5.9 20.5-8.73 4.42-1.84 8.77-3.79 13.1-5.83 8.61-4 17.4-7.52 26.2-11.1 8.33-3.39 16.6-6.88 24.7-10.7 5.16-2.35 10.4-4.41 15.7-6.47 7.06-2.76 14-5.62 20.9-8.83 2.54-1.13 5.1-2.07 7.73-2.98 25-8.91 52.3-25 64.6-49.5 4.76-11.2 3.81-22.3 0.117-33.6-0.897-2.07-1.81-4.13-2.75-6.19-2.32-5.36-2.99-9.2-1.25-14.8 3.01-7.58 9.27-11.9 16.6-15.2 8.88-3.18 17.5-1.96 25.4 3.16z" fill="#1D1C1E"/>
<path transform="translate(783 524)" d="m0 0c12.3 9.76 20.3 25.2 22.8 40.5 1.06 11.4 0.503 22.3-4 33-0.351 0.866-0.701 1.73-1.06 2.62-5.94 13.2-17.4 24.9-30.8 30.8-16.9 5.85-35 6.17-51.7-1.09-17.4-9.29-28.6-22.1-34.6-40.9-4.32-15.9-1.23-31.8 6.52-46.2 9.31-15.6 23.2-25.2 40.4-30.4 19-4.46 36.7 0.759 52.3 11.7z" fill="#1D1C1E"/>
<path transform="translate(920,421)" d="m0 0c1.74 2.11 3.03 3.97 4.38 6.31 0.716 1.18 1.43 2.37 2.15 3.55 0.385 0.648 0.769 1.3 1.17 1.96 2.08 3.45 4.26 6.83 6.43 10.2 3.21 5.03 6.39 10.1 9.57 15.1 0.65 1.03 1.3 2.06 1.97 3.12 6.88 11 6.88 11 9.34 16.7-1 3-1 3-3.25 4.56-4.46 3.95-7.28 9.01-8.1 15-0.0279 2.53 0.108 4.96 0.348 7.48 0.0799 0.941 0.16 1.88 0.242 2.85 0.222 2.39 0.474 4.77 0.758 7.15-2.98 2.03-5.99 4.02-9 6-0.642 0.437-1.28 0.874-1.95 1.32-2.88 1.84-4.81 2.67-8.24 2.74-5.74-2.17-8.78-8.92-12-13.9-0.728-1.13-0.728-1.13-1.47-2.28-3.72-5.81-7.3-11.7-10.8-17.6-3.18-5.35-6.41-10.7-9.64-16-0.574-0.946-1.15-1.89-1.74-2.87-3.46-5.69-7-11.3-10.7-16.9-1.46-2.46-2.59-4.78-3.48-7.5 1.33-4.89 5.97-7.38 10.1-9.86 1.12-0.624 2.25-1.25 3.41-1.89 5.98-3.35 11.8-6.87 17.7-10.5 0.937-0.581 1.87-1.16 2.84-1.76 0.844-0.571 1.69-1.14 2.56-1.73 2.89-1.5 4.25-2.02 7.44-1.27z" fill="#201F21"/>
<path transform="translate(667,648)" d="m0 0c2.49 2.61 3.99 4.47 4.02 8.18-0.24 1.96-0.62 3.89-1.02 5.82-6.39-0.16-9.66-3.78-14-8 2.86-6.12 4.1-8.07 11-6z" fill="#FCFDFF"/>
<path transform="translate(912,442)" d="m0 0c0.99 0.33 1.98 0.66 3 1v5c-1.65-0.33-3.3-0.66-5-1v-4l2-1z" fill="#FCFDFF"/>
</svg>
