<svg xmlns="http://www.w3.org/2000/svg" width="1280" height="1280" viewBox="0 0 1600 1600"><path fill="#F9FCFE" d="M0 0h1600v1600H0V0z"/><path fill="#1D1C1E" d="M989 482c2.69 2.31 2.69 2.31 5 5 1.24 1.42 1.24 1.42 2.5 2.88 11.1 16.1 12.1 42.1 8.85 60.6-.904 3.64-2 7.04-3.35 10.5l-.764 1.99c-5.43 13.9-12.9 26.2-23.2 37h-2l-.812 1.94c-1.19 2.06-1.19 2.06-4.19 3.06l-.77 1.71c-1.86 3.47-4.87 5.53-7.92 7.91-.672.528-1.34 1.06-2.04 1.6-19.3 15-40.4 25.4-63.1 34.2-11.8 4.61-22.2 8.92-28.5 20.5-5.73 14.4.218 31.1 3.47 45.4 9.45 42 14.7 84.9 17.8 128l.18 2.41c1.56 21 2.15 42 1.85 63.1-.035 2.61-.064 5.22-.092 7.83-.69 61.8-4.18 123-10.1 185l-.348 3.66-.304 3.13a85.392 85.392 0 0 0-.212 7.79c3.18 1.38 6.36 2.39 9.69 3.31 10.4 3.06 19.2 7.79 25.1 17.1 2.4 5.35 2.47 11.2.395 16.7-6.89 11-20.5 14.9-32.4 17.7-19.7 3.62-43.2 2.34-60.2-9.19-5.81-4.33-10.7-8-11.9-15.4-.739-5.83-.563-11.3.004-17.1l.274-3.05a2120.867 2120.867 0 0 1 1.256-13.22c.485-4.98.973-9.96 1.46-14.9.699-7.12 1.39-14.2 2.08-21.4l.458-4.71c12.4-79.2 12.4-79.2-3.22-154-1.79-2.35-1.79-2.35-3.94-3.38-3.13.095-4.55 1.2-7.06 3.06-1.78 2.41-3.17 4.98-4.56 7.62-.393.727-.787 1.45-1.19 2.2-1.1 2.05-2.18 4.11-3.25 6.17-.427.811-.853 1.62-1.29 2.46-6.57 13.6-9.05 29.3-12.2 43.9-8.7 39.8-21.7 79-39.5 116-.656 1.41-1.31 2.82-1.96 4.23-3.67 7.94-7.51 15.7-11.8 23.3-1.4 2.28-1.4 2.28-1.25 4.44 1.99 1.31 1.99 1.31 4.5 2.62 8.7 5.1 15.3 11.6 18.5 21.4.823 4.94.593 8.66-1.44 13.2-8.14 8.73-17.9 11.8-29.7 12.2-2.55.024-5.09.024-7.64.004l-2.01-.01c-10.1-.068-18.8-.745-28.2-4.43-1.3-.464-2.6-.928-3.9-1.39-11.8-4.31-23.5-10.3-29.3-22-3.14-10.1-.272-20.4 4.2-29.6 1.81-3.04 3.82-5.94 5.85-8.83 6.19-8.91 11.1-18.6 16.2-28.2.568-1.08.568-1.08 1.15-2.18 5.85-11.1 10.8-22.7 15.8-34.2.908-2.14 1.83-4.27 2.75-6.41 13.1-31.3 21.1-65 27.3-98.2l.577-2.97c12.3-64.4 15.5-144-1.58-208-11.7 5.83-21.2 15.5-29.4 25.4-.512.52-1.02 1.04-1.55 1.57h-2l-.668 1.62c-1.79 3.2-4.21 5.74-6.64 8.44-4.84 5.5-9.11 11.2-13.2 17.3-4.18 6.23-8.41 12.4-12.9 18.4-.695.96-.695.96-1.4 1.94-5.17 6.92-11.4 13.2-20.3 14.6-2.26.17-4.47.215-6.74.196l-2.4-.015c-6.56-.195-11.4-1.6-16.8-5.48-.652-.434-1.3-.87-1.98-1.32-6.05-4.52-9.44-11.4-11-18.7-1.23-10.6 1.86-21.1 4.13-31.3.433-1.99.864-3.99 1.29-5.98 1.14-5.25 2.29-10.5 3.44-15.7 1.15-5.22 2.28-10.4 3.41-15.7 3.11-14.3 6.23-28.6 9.38-42.9l1.98-8.97c.437-1.98.878-3.96 1.32-5.95 2.07-9.41 3.18-18.2 3.19-27.8.018-2.19.038-4.38.058-6.56.03-3.43.051-6.86.052-10.3.003-3.32.038-6.64.077-9.97l-.021-3.1c.122-7.1.122-7.1 3.05-11 2.65-1.88 2.65-1.88 5.65-2.88 2.58 1.2 4.45 2.23 6.12 4.57 1.33 3.65 1.31 7.26 1.45 11.1-.262 5.06-.262 5.06 1.44 9.31l.734-2.48c.503-1.62.503-1.62 1.02-3.27.325-1.07.65-2.13.984-3.23 1.34-3.2 2.54-4.88 5.27-7.02 3.5-.25 3.5-.25 7 1 1.8 2.5 2.94 5.12 4 8 .606-.334 1.21-.668 1.84-1.01 2.83-1.29 4.26-.983 7.16.011 2.7 4.04 2.43 7.25 2 12-1 2.88-1 2.88-2 5v3l3.19 1.25c6.04 2.65 9.8 6.13 12.9 12 2.08 6.04 2.05 12.9.324 19-2.1 4.24-5.66 6.8-9.47 9.4-3.96 2.83-5.3 4.82-6.29 9.66-.216 1.04-.432 2.08-.654 3.16l-.646 3.3-.682 3.25c-1.1 5.42-1.92 10.5-1.63 16l1.03-1.5c3.78-5.3 7.92-9.41 13-13.5.632-.53 1.26-1.06 1.91-1.61 11.6-9.44 24.5-17.1 38.1-23.4 1.31-.613 2.61-1.23 3.92-1.84 2.58-1.21 5.16-2.4 7.74-3.6 2.58-1.21 5.12-2.45 7.65-3.75 3.5-1.78 7.1-3.2 10.8-4.63 3.49-1.41 6.93-2.91 10.4-4.43 6.79-3 13.6-5.9 20.5-8.73 4.42-1.84 8.77-3.79 13.1-5.83 8.61-4 17.4-7.52 26.2-11.1 8.33-3.39 16.6-6.88 24.7-10.7 5.16-2.35 10.4-4.41 15.7-6.47 7.06-2.76 14-5.62 20.9-8.83 2.54-1.13 5.1-2.07 7.73-2.98 25-8.91 52.3-25 64.6-49.5 4.76-11.2 3.81-22.3.117-33.6-.897-2.07-1.81-4.13-2.75-6.19-2.32-5.36-2.99-9.2-1.25-14.8 3.01-7.58 9.27-11.9 16.6-15.2 8.88-3.18 17.5-1.96 25.4 3.16z"/><path fill="#1D1C1E" d="M783 524c12.3 9.76 20.3 25.2 22.8 40.5 1.06 11.4.503 22.3-4 33l-1.06 2.62c-5.94 13.2-17.4 24.9-30.8 30.8-16.9 5.85-35 6.17-51.7-1.09-17.4-9.29-28.6-22.1-34.6-40.9-4.32-15.9-1.23-31.8 6.52-46.2 9.31-15.6 23.2-25.2 40.4-30.4 19-4.46 36.7.759 52.3 11.7z"/><path fill="#201F21" d="M920 421a43.64 43.64 0 0 1 4.38 6.31c.716 1.18 1.43 2.37 2.15 3.55.385.648.769 1.3 1.17 1.96 2.08 3.45 4.26 6.83 6.43 10.2 3.21 5.03 6.39 10.1 9.57 15.1l1.97 3.12c6.88 11 6.88 11 9.34 16.7-1 3-1 3-3.25 4.56-4.46 3.95-7.28 9.01-8.1 15-.028 2.53.108 4.96.348 7.48l.242 2.85c.222 2.39.474 4.77.758 7.15-2.98 2.03-5.99 4.02-9 6-.642.437-1.28.874-1.95 1.32-2.88 1.84-4.81 2.67-8.24 2.74-5.74-2.17-8.78-8.92-12-13.9l-1.47-2.28c-3.72-5.81-7.3-11.7-10.8-17.6-3.18-5.35-6.41-10.7-9.64-16-.574-.946-1.15-1.89-1.74-2.87-3.46-5.69-7-11.3-10.7-16.9-1.46-2.46-2.59-4.78-3.48-7.5 1.33-4.89 5.97-7.38 10.1-9.86 1.12-.624 2.25-1.25 3.41-1.89 5.98-3.35 11.8-6.87 17.7-10.5l2.84-1.76c.844-.571 1.69-1.14 2.56-1.73 2.89-1.5 4.25-2.02 7.44-1.27z"/><path fill="#FAFDFF" d="M667 648c2.49 2.61 3.99 4.47 4.02 8.18-.24 1.96-.62 3.89-1.02 5.82-6.39-.16-9.66-3.78-14-8 2.86-6.12 4.1-8.07 11-6zM912 442l3 1v5l-5-1v-4l2-1z"/></svg>